<?xml version="1.0" encoding="utf-8"?>
<!-- Generator: Adobe Illustrator 19.2.0, SVG Export Plug-In . SVG Version: 6.00 Build 0)  -->
<svg version="1.1" id="browsersettings" xmlns="http://www.w3.org/2000/svg" xmlns:xlink="http://www.w3.org/1999/xlink" x="0px"
	 y="0px" viewBox="0 0 232 192" enable-background="new 0 0 232 192" xml:space="preserve">
<g>
	<path fill="none" d="M8,184h216V40H8V184z M78.7596,101.2304h0.9512c0.7464-2.5312,1.754-4.9628,3.012-7.2792l-0.67-0.67
		c-4.1952-4.1952-4.1936-11.0232,0.0056-15.2228c4.2032-4.1992,11.0316-4.1992,15.2228-0.0076l0.672,0.672
		c2.3144-1.26,4.748-2.2656,7.2772-3.012v-0.9512C105.2304,68.826,110.0624,64,116,64s10.7696,4.826,10.7696,10.7596v0.9512
		c2.5292,0.7464,4.9628,1.752,7.2772,3.012l0.67-0.672c4.2012-4.1932,11.0272-4.1896,15.2248,0.0076
		c2.0332,2.0352,3.154,4.7384,3.156,7.6116c0,2.8768-1.1172,5.582-3.1504,7.6132l-0.67,0.668
		c1.258,2.3164,2.2656,4.748,3.012,7.2792h0.9512C159.174,101.2304,164,106.0624,164,112s-4.826,10.7696-10.7596,10.7696h-0.9512
		c-0.7464,2.5312-1.754,4.9628-3.012,7.2792l0.67,0.67c2.0332,2.0312,3.1564,4.7304,3.1584,7.5996
		c0.002,2.8748-1.1212,5.582-3.164,7.6232c-2.0352,2.0332-4.7384,3.154-7.6116,3.156c-0.002,0-0.0056,0-0.0056,0
		c-2.8772,0-5.5764-1.1192-7.6076-3.1504l-0.668-0.67c-2.3164,1.258-4.748,2.2656-7.2792,3.012v0.9512
		C126.7696,155.174,121.9376,160,116,160s-10.7696-4.826-10.7696-10.7596v-0.9512c-2.5312-0.7464-4.9628-1.754-7.2792-3.012
		l-0.67,0.67c-2.0312,2.0332-4.7304,3.1564-7.5996,3.1584c0,0-0.006,0-0.0076,0c-2.8712,0-5.5764-1.1232-7.6156-3.164
		c-2.0332-2.0352-3.154-4.7384-3.156-7.6116c0-2.8768,1.1172-5.582,3.1504-7.6132l0.67-0.668
		c-1.258-2.3164-2.2656-4.748-3.012-7.2792h-0.9512C72.826,122.7696,68,117.9376,68,112S72.826,101.2304,78.7596,101.2304z"/>
	<path fill="none" d="M120.3516,116.3516c2.3984-2.4004,2.3984-6.3028,0-8.7032c-1.1992-1.1992-2.7756-1.7988-4.3516-1.7988
		s-3.1524,0.5996-4.3516,1.7988c-2.3984,2.4004-2.3984,6.3028,0,8.7032C114.0468,118.75,117.9532,118.75,120.3516,116.3516z"/>
	<path fill="none" d="M78.7596,114.7696h4.0744c1.9024,0,3.5412,1.3396,3.92,3.2052c0.7636,3.7636,2.2244,7.2908,4.3396,10.484
		c1.0508,1.586,0.84,3.6916-0.5056,5.0372l-2.8792,2.8788c-0.5192,0.5196-0.8064,1.2132-0.8064,1.9496
		c0.002,0.74,0.2908,1.4372,0.8144,1.9608c0.5272,0.5292,1.2228,0.8204,1.9572,0.8204h0.0016
		c0.7328-0.002,1.424-0.2892,1.9476-0.8144l2.8808-2.8792c0.7732-0.7732,1.7968-1.1716,2.83-1.1716
		c0.7636,0,1.5332,0.2184,2.2072,0.666c3.1932,2.1152,6.7204,3.576,10.484,4.3396c1.8656,0.3788,3.2052,2.0176,3.2052,3.92v4.0744
		c0,1.5212,1.2424,2.7596,2.7696,2.7596c1.5528,0,2.7696-1.2128,2.7696-2.7596v-4.0744c0-1.9024,1.3396-3.5412,3.2052-3.92
		c3.7636-0.7636,7.2908-2.2244,10.484-4.3396c1.584-1.0528,3.6936-0.842,5.0372,0.5056l2.8792,2.8792
		c0.5192,0.5192,1.2108,0.8064,1.9492,0.8064c0.74-0.002,1.4372-0.2908,1.9608-0.8144c0.5292-0.5272,0.8204-1.2248,0.8204-1.9588
		c-0.002-0.7328-0.2892-1.424-0.8144-1.9476l-2.8792-2.8808c-1.3456-1.3456-1.5564-3.4512-0.5056-5.0372
		c2.1152-3.1932,3.576-6.7204,4.3396-10.484c0.3792-1.8656,2.0176-3.2052,3.92-3.2052h4.0744c1.5212,0,2.7596-1.2424,2.7596-2.7696
		c0-1.5528-1.2128-2.7696-2.7596-2.7696h-4.0744c-1.9024,0-3.5408-1.3396-3.92-3.2052c-0.7636-3.7636-2.2244-7.2908-4.3396-10.484
		c-1.0508-1.586-0.84-3.6916,0.5056-5.0372l2.8792-2.8792c0.5192-0.5192,0.8064-1.2128,0.8064-1.9492
		c-0.002-0.74-0.2908-1.4372-0.8144-1.9608c-1.0976-1.1016-2.8144-1.0976-3.908-0.0076l-2.8772,2.8808
		c-1.3456,1.3456-3.4552,1.5584-5.0392,0.5056c-3.1932-2.1152-6.7204-3.576-10.484-4.3396c-1.8656-0.3792-3.2052-2.0176-3.2052-3.92
		v-4.0744C118.7696,73.2384,117.5272,72,116,72c-1.5528,0-2.7696,1.2128-2.7696,2.7596v4.0744c0,1.9024-1.3396,3.5408-3.2052,3.92
		c-3.7636,0.7636-7.2908,2.2244-10.484,4.3396c-1.584,1.0528-3.6936,0.84-5.0392-0.5056l-2.8788-2.8808
		c-1.0684-1.0684-2.8244-1.0744-3.9084,0.0096c-1.0976,1.0956-1.0996,2.8124-0.006,3.908l2.8792,2.8792
		c1.3456,1.3456,1.5564,3.4512,0.5056,5.0372c-2.1152,3.1932-3.576,6.7204-4.3396,10.484c-0.3788,1.8656-2.0176,3.2052-3.92,3.2052
		h-4.0744C77.2384,109.2304,76,110.4728,76,112C76,113.5528,77.2128,114.7696,78.7596,114.7696z M105.992,101.992
		c5.5196-5.5192,14.4964-5.5192,20.016,0c5.5192,5.5176,5.5192,14.4984,0,20.016c-2.76,2.7596-6.3828,4.1384-10.008,4.1384
		c-3.6248,0-7.248-1.3788-10.008-4.1384C100.4728,116.4904,100.4728,107.5096,105.992,101.992z"/>
	<path fill="none" d="M8,8v24h216V8H8z M20,28c-4.412,0-8-3.588-8-8s3.588-8,8-8s8,3.588,8,8S24.412,28,20,28z M40,28
		c-4.412,0-8-3.588-8-8s3.588-8,8-8s8,3.588,8,8S44.412,28,40,28z M60,28c-4.412,0-8-3.588-8-8s3.588-8,8-8s8,3.588,8,8
		S64.412,28,60,28z"/>
	<path fill="white" d="M0,0v32v8v152h232V40v-8V0H0z M224,184H8V40h216V184z M8,32V8h216v24H8z"/>
	<circle fill="white" cx="20" cy="20" r="8"/>
	<circle fill="white" cx="40" cy="20" r="8"/>
	<circle fill="white" cx="60" cy="20" r="8"/>
	<path fill="white" d="M78.7596,122.7696h0.9512c0.7464,2.5312,1.754,4.9628,3.012,7.2792l-0.67,0.668
		c-2.0332,2.0312-3.1504,4.7364-3.1504,7.6132c0.002,2.8732,1.1228,5.5764,3.156,7.6116c2.0392,2.0408,4.7444,3.164,7.6156,3.164
		c0.0016,0,0.0056,0,0.0056,0c2.8712-0.002,5.5704-1.1252,7.6016-3.1584l0.67-0.67c2.3164,1.258,4.748,2.2656,7.2792,3.012v0.9512
		C105.2304,155.174,110.0624,160,116,160s10.7696-4.826,10.7696-10.7596v-0.9512c2.5312-0.7464,4.9628-1.754,7.2792-3.012
		l0.668,0.67c2.0312,2.0312,4.7304,3.1504,7.6056,3.1504c0,0,0.0056,0,0.0076,0c2.8732-0.002,5.5764-1.1228,7.6116-3.156
		c2.0428-2.0412,3.166-4.7484,3.164-7.6232c-0.002-2.8692-1.1252-5.5684-3.1584-7.5996l-0.67-0.67
		c1.258-2.3164,2.2656-4.748,3.012-7.2792h0.9512C159.174,122.7696,164,117.9376,164,112s-4.826-10.7696-10.7596-10.7696h-0.9512
		c-0.7464-2.5312-1.754-4.9628-3.012-7.2792l0.67-0.668c2.0332-2.0312,3.1504-4.7364,3.1504-7.6132
		c-0.002-2.8732-1.1228-5.5764-3.156-7.6116c-4.1976-4.1972-11.0236-4.2008-15.2248-0.0076l-0.67,0.672
		c-2.3144-1.26-4.748-2.2656-7.2772-3.012v-0.9512C126.7696,68.826,121.9376,64,116,64s-10.7696,4.826-10.7696,10.7596v0.9512
		c-2.5292,0.7464-4.9628,1.752-7.2772,3.012l-0.672-0.672c-4.1912-4.1916-11.0196-4.1916-15.2228,0.0076
		c-4.1992,4.1996-4.2008,11.0276-0.0056,15.2228l0.67,0.67c-1.258,2.3164-2.2656,4.748-3.012,7.2792h-0.9512
		C72.826,101.2304,68,106.0624,68,112S72.826,122.7696,78.7596,122.7696z M78.7596,109.2304h4.0744
		c1.9024,0,3.5412-1.3396,3.92-3.2052c0.7636-3.7636,2.2244-7.2908,4.3396-10.484c1.0508-1.586,0.84-3.6916-0.5056-5.0372
		l-2.8792-2.8792c-1.0936-1.0956-1.0916-2.8124,0.006-3.908c1.084-1.084,2.84-1.078,3.9084-0.0096l2.8788,2.8808
		c1.3456,1.3456,3.4552,1.5584,5.0392,0.5056c3.1932-2.1152,6.7204-3.576,10.484-4.3396c1.8656-0.3792,3.2052-2.0176,3.2052-3.92
		v-4.0744C113.2304,73.2128,114.4472,72,116,72c1.5272,0,2.7696,1.2384,2.7696,2.7596v4.0744c0,1.9024,1.3396,3.5408,3.2052,3.92
		c3.7636,0.7636,7.2908,2.2244,10.484,4.3396c1.584,1.0528,3.6936,0.84,5.0392-0.5056l2.8772-2.8808
		c1.0936-1.09,2.8104-1.094,3.908,0.0076c0.5236,0.5236,0.8124,1.2208,0.8144,1.9608c0,0.7364-0.2872,1.43-0.8064,1.9492
		l-2.8792,2.8792c-1.3456,1.3456-1.5564,3.4512-0.5056,5.0372c2.1152,3.1932,3.576,6.7204,4.3396,10.484
		c0.3792,1.8656,2.0176,3.2052,3.92,3.2052h4.0744c1.5468,0,2.7596,1.2168,2.7596,2.7696c0,1.5272-1.2384,2.7696-2.7596,2.7696
		h-4.0744c-1.9024,0-3.5408,1.3396-3.92,3.2052c-0.7636,3.7636-2.2244,7.2908-4.3396,10.484
		c-1.0508,1.586-0.84,3.6916,0.5056,5.0372l2.8792,2.8808c0.5252,0.5236,0.8124,1.2148,0.8144,1.9476
		c0,0.734-0.2912,1.4316-0.8204,1.9588c-0.5236,0.5236-1.2208,0.8124-1.9608,0.8144c-0.7384,0-1.43-0.2872-1.9492-0.8064
		l-2.8792-2.8792c-1.3436-1.3476-3.4532-1.5584-5.0372-0.5056c-3.1932,2.1152-6.7204,3.576-10.484,4.3396
		c-1.8656,0.3788-3.2052,2.0176-3.2052,3.92v4.0744c0,1.5468-1.2168,2.7596-2.7696,2.7596c-1.5272,0-2.7696-1.2384-2.7696-2.7596
		v-4.0744c0-1.9024-1.3396-3.5412-3.2052-3.92c-3.7636-0.7636-7.2908-2.2244-10.484-4.3396c-0.674-0.4476-1.4436-0.666-2.2072-0.666
		c-1.0332,0-2.0568,0.3984-2.83,1.1716l-2.8808,2.8792c-0.5236,0.5252-1.2148,0.8124-1.9476,0.8144H89.674
		c-0.7344,0-1.43-0.2912-1.9572-0.8204c-0.5236-0.5236-0.8124-1.2208-0.8144-1.9608c0-0.7364,0.2872-1.43,0.8064-1.9496
		l2.8792-2.8788c1.3456-1.3456,1.5564-3.4512,0.5056-5.0372c-2.1152-3.1932-3.576-6.7204-4.3396-10.484
		c-0.3788-1.8656-2.0176-3.2052-3.92-3.2052h-4.0744C77.2128,114.7696,76,113.5528,76,112
		C76,110.4728,77.2384,109.2304,78.7596,109.2304z"/>
	<path fill="white" d="M116,126.1464c3.6252,0,7.248-1.3788,10.008-4.1384c5.5192-5.5176,5.5192-14.4984,0-20.016
		c-5.5196-5.5192-14.4964-5.5192-20.016,0c-5.5192,5.5176-5.5192,14.4984,0,20.016C108.752,124.7676,112.3752,126.1464,116,126.1464
		z M111.6484,107.6484c1.1992-1.1992,2.7756-1.7988,4.3516-1.7988s3.1524,0.5996,4.3516,1.7988
		c2.3984,2.4004,2.3984,6.3028,0,8.7032c-2.3984,2.3984-6.3048,2.3984-8.7032,0C109.25,113.9512,109.25,110.0488,111.6484,107.6484z
		"/>
</g>
</svg>
