<?xml version="1.0" encoding="utf-8"?>
<!-- Generator: Adobe Illustrator 19.2.0, SVG Export Plug-In . SVG Version: 6.00 Build 0)  -->
<svg version="1.1" id="strategy" xmlns="http://www.w3.org/2000/svg" xmlns:xlink="http://www.w3.org/1999/xlink" x="0px" y="0px"
	 viewBox="0 0 224 224" enable-background="new 0 0 224 224" xml:space="preserve">
<g>
	<path fill="none" d="M56,168c0,6.6172,5.3828,12,12,12s12-5.3828,12-12s-5.3828-12-12-12S56,161.3828,56,168z"/>
	<path fill="none" d="M176,56c-6.6172,0-12,5.3828-12,12s5.3828,12,12,12s12-5.3828,12-12S182.6172,56,176,56z"/>
	<path fill="none" d="M112,8C54.6544,8,8,54.6524,8,112s46.6544,104,104,104s104-46.6524,104-104S169.3456,8,112,8z
		 M51.0292,55.3124l5.6564-5.656L68,60.9708l11.3144-11.3144l5.6564,5.656L73.6564,66.6268l11.3144,11.3148l-5.6564,5.656
		L68,72.2832L56.6856,83.5976l-5.6564-5.656l11.3144-11.3148L51.0292,55.3124z M72.618,148.5912
		C81.4164,150.6888,88,158.5688,88,168c0,11.0272-8.9728,20-20,20s-20-8.9728-20-20c0-9.8544,7.1804-18.0176,16.574-19.6536
		c1.1012-11.89,9.0912-48.6968,64.6648-66.8132l-13.1588-5.584c-2.0332-0.8632-2.9824-3.2148-2.1192-5.246
		c0.8652-2.0352,3.2112-2.9804,5.2444-2.1212l22.0916,9.3788c2.0332,0.8636,2.9824,3.2148,2.1192,5.2464l-9.3768,22.0896
		c-0.6468,1.5236-2.1272,2.4376-3.6836,2.4376c-0.5216,0-1.0508-0.1016-1.5608-0.3164c-2.0332-0.8632-2.9824-3.2148-2.1192-5.246
		l5.6156-13.2292C81.684,105.2256,73.822,138.1256,72.618,148.5912z M158.3416,169.9416l-5.656,5.656l-11.3136-11.314
		l-11.3136,11.314l-5.656-5.656l11.3136-11.3148l-11.3136-11.3144l5.656-5.656l11.3136,11.314l11.3136-11.314l5.656,5.656
		l-11.3136,11.3144L158.3416,169.9416z M176,88c-11.0272,0-20-8.9728-20-20s8.9728-20,20-20s20,8.9728,20,20S187.0272,88,176,88z"/>
	<path fill="white" d="M112,0C50.242,0,0,50.242,0,112s50.242,112,112,112s112-50.242,112-112S173.758,0,112,0z M112,216
		C54.6544,216,8,169.3476,8,112S54.6544,8,112,8s104,46.6524,104,104S169.3456,216,112,216z"/>
	<polygon fill="white" points="56.6856,83.5976 68,72.2832 79.3144,83.5976 84.9708,77.9416 73.6564,66.6268 84.9708,55.3124 79.3144,49.6564 
		68,60.9708 56.6856,49.6564 51.0292,55.3124 62.3436,66.6268 51.0292,77.9416 	"/>
	<polygon fill="white" points="152.6856,141.6564 141.372,152.9704 130.0584,141.6564 124.4024,147.3124 135.716,158.6268 124.4024,169.9416 
		130.0584,175.5976 141.372,164.2836 152.6856,175.5976 158.3416,169.9416 147.028,158.6268 158.3416,147.3124 	"/>
	<path fill="white" d="M126.6756,102.172c-0.8632,2.0312,0.086,4.3828,2.1192,5.246c0.51,0.2148,1.0392,0.3164,1.5608,0.3164
		c1.5564,0,3.0368-0.914,3.6836-2.4376l9.3768-22.0896c0.8632-2.0316-0.086-4.3828-2.1192-5.2464l-22.0916-9.3788
		c-2.0332-0.8592-4.3792,0.086-5.2444,2.1212c-0.8632,2.0312,0.086,4.3828,2.1192,5.246l13.1588,5.584
		c-55.5736,18.1164-63.5636,54.9232-64.6648,66.8132C55.1804,149.9824,48,158.1456,48,168c0,11.0272,8.9728,20,20,20
		s20-8.9728,20-20c0-9.4312-6.5836-17.3112-15.382-19.4088c1.204-10.4656,9.066-43.3656,59.6732-59.6484L126.6756,102.172z M80,168
		c0,6.6172-5.3828,12-12,12s-12-5.3828-12-12s5.3828-12,12-12S80,161.3828,80,168z"/>
	<path fill="white" d="M176,48c-11.0272,0-20,8.9728-20,20s8.9728,20,20,20s20-8.9728,20-20S187.0272,48,176,48z M176,80
		c-6.6172,0-12-5.3828-12-12s5.3828-12,12-12s12,5.3828,12,12S182.6172,80,176,80z"/>
</g>
</svg>
