<?xml version="1.0" encoding="utf-8"?>
<!-- Generator: Adobe Illustrator 19.2.0, SVG Export Plug-In . SVG Version: 6.00 Build 0)  -->
<svg version="1.1" id="monitordrawing" xmlns="http://www.w3.org/2000/svg" xmlns:xlink="http://www.w3.org/1999/xlink" x="0px"
	 y="0px" viewBox="0 0 216 188" enable-background="new 0 0 216 188" xml:space="preserve">
<g>
	<polygon fill="none" points="82.0663,180 133.9335,180 125.3631,160 90.6367,160 	"/>
	<path fill="none" d="M8,152h80h40h80v-24H8V152z M108,132c4.4099,0,8,3.5901,8,8c0,4.4101-3.5901,8-8,8c-4.4101,0-8-3.5899-8-8
		C100,135.5901,103.5899,132,108,132z"/>
	<path fill="none" d="M203.9727,8H12.0271C9.8047,8,8,9.7773,8,11.9649V120h200V11.9649C208,9.7773,206.1951,8,203.9727,8z
		 M194.7695,60.4065c-8.086-1.332-20.672-1.3752-23.2304,2.0272c-1.2344,1.6408-2.8128,4.8008-4.4808,8.1444
		c-5.3396,10.6992-12.6872,25.3284-24.3748,22.0548c-11.2264-3.16-8.6952-15.0196-6.4648-25.4844
		c1.164-5.4452,2.3672-11.078,2.3672-16.492c0-4.012-1.0664-6.8245-2.7148-7.168c-2.7892-0.6252-9.1836,3.8084-14.0744,15.0624
		c-7.0664,16.242-15.4216,16.3944-18.7068,15.7304c-6.8948-1.4336-11.176-9.6444-11.176-21.422
		c0-17.414-8.5739-31.0544-19.5156-31.0544c-1.574,1.836-0.34,13.7264,0.5624,22.406c1.8948,18.2228,4.25,40.8984-3.7927,57.668
		c-2.2893,4.7776-5.9261,10.9768-11.4141,10.9768c-0.2892,0-0.5819-0.0197-0.8828-0.0548
		c-8.1956-0.9729-11.7071-14.59-16.1368-35.254c-1.0976-5.1368-2.1408-9.992-2.9924-12.3436
		c-0.8356-2.3008-2.0388-2.9844-2.8748-3.3008c-3.1092-1.1992-8.246,0.6756-10.25,1.7655c-1.9416,1.0549-4.3752,0.332-5.422-1.6095
		c-1.0544-1.9412-0.332-4.3668,1.6096-5.4216c0.9532-0.5196,9.5664-5.004,16.9024-2.2148c3.5116,1.332,6.1249,4.1172,7.5508,8.0468
		c1.0428,2.8711,2.0896,7.754,3.3004,13.406c1.7072,7.9611,5.6448,26.3516,9.176,28.8712c0.5392-0.3788,2.0272-1.7541,4.2228-6.328
		c7.0624-14.7304,4.8356-36.16,3.0469-53.3788c-1.508-14.5236-2.504-24.1172,1.66-28.7384c1.4727-1.6329,3.4531-2.496,5.7343-2.496
		c15.6876,0,27.5156,16.7888,27.5156,39.0544c0,9.172,2.9492,13.2032,4.8048,13.59c2.254,0.4728,6.1524-2.832,9.742-11.086
		c5.9336-13.6524,15-21.3984,23.0393-19.7068c5.6875,1.1835,9.0859,6.7888,9.0859,15c0,6.2576-1.3516,12.582-2.5432,18.164
		c-2.4372,11.4256-2.6444,15.1404,0.8048,16.1092c5.426,1.5392,11.1952-10.1836,15.0548-17.9257
		c1.914-3.84,3.5704-7.1563,5.246-9.3827c6.5272-8.668,26.91-5.7696,30.9296-5.1056c2.18,0.3592,3.6484,2.422,3.2892,4.5976
		C199.004,59.2969,196.9063,60.7929,194.7695,60.4065z"/>
	<path fill="white" d="M203.9727,0H12.0271C5.3943,0,0,5.3673,0,11.9649V120v8v32h81.9351l-9.6108,22.4257
		c-0.5316,1.2343-0.4024,2.6524,0.3357,3.7776C73.4023,187.3245,74.6563,188,76,188h64c1.3435,0,2.5975-0.6755,3.34-1.7967
		c0.7379-1.1252,0.8671-2.5433,0.3355-3.7776L134.0647,160H216v-32v-8V11.9649C216,5.3673,210.6055,0,203.9727,0z M133.9335,180
		H82.0663l8.5704-20h34.7264L133.9335,180z M208,152h-80H88H8v-24h200V152z M8,120V11.9649C8,9.7773,9.8047,8,12.0271,8h191.9456
		C206.1951,8,208,9.7773,208,11.9649V120H8z"/>
	<path fill="white" d="M108,148c4.4099,0,8-3.5899,8-8c0-4.4099-3.5901-8-8-8c-4.4101,0-8,3.5901-8,8C100,144.4101,103.5899,148,108,148z"/>
	<path fill="white" d="M196.0779,52.5157c-4.0196-0.664-24.4024-3.5624-30.9296,5.1056c-1.6756,2.2264-3.332,5.5427-5.246,9.3827
		c-3.8596,7.7421-9.6288,19.4649-15.0548,17.9257c-3.4492-0.9688-3.242-4.6836-0.8048-16.1092
		c1.1916-5.582,2.5432-11.9064,2.5432-18.164c0-8.2112-3.3984-13.8165-9.0859-15c-8.0393-1.6916-17.1057,6.0544-23.0393,19.7068
		c-3.5896,8.254-7.488,11.5588-9.742,11.086c-1.8556-0.3868-4.8048-4.418-4.8048-13.59c0-22.2656-11.828-39.0544-27.5156-39.0544
		c-2.2812,0-4.2616,0.8631-5.7343,2.496c-4.164,4.6212-3.168,14.2148-1.66,28.7384c1.7887,17.2188,4.0155,38.6484-3.0469,53.3788
		c-2.1956,4.5739-3.6836,5.9492-4.2228,6.328c-3.5312-2.5196-7.4688-20.9101-9.176-28.8712
		c-1.2108-5.652-2.2576-10.5349-3.3004-13.406c-1.4259-3.9296-4.0392-6.7148-7.5508-8.0468
		c-7.336-2.7892-15.9492,1.6952-16.9024,2.2148c-1.9416,1.0548-2.664,3.4804-1.6096,5.4216
		c1.0468,1.9415,3.4804,2.6644,5.422,1.6095c2.004-1.0899,7.1408-2.9647,10.25-1.7655c0.836,0.3164,2.0392,1,2.8748,3.3008
		c0.8516,2.3516,1.8948,7.2068,2.9924,12.3436c4.4297,20.664,7.9412,34.2811,16.1368,35.254
		c0.3009,0.0351,0.5936,0.0548,0.8828,0.0548c5.488,0,9.1248-6.1992,11.4141-10.9768c8.0427-16.7696,5.6875-39.4452,3.7927-57.668
		c-0.9024-8.6796-2.1364-20.57-0.5624-22.406c10.9417,0,19.5156,13.6404,19.5156,31.0544c0,11.7776,4.2812,19.9884,11.176,21.422
		c3.2852,0.664,11.6404,0.5116,18.7068-15.7304c4.8908-11.254,11.2852-15.6876,14.0744-15.0624
		c1.6484,0.3435,2.7148,3.156,2.7148,7.168c0,5.414-1.2032,11.0468-2.3672,16.492c-2.2304,10.4648-4.7616,22.3244,6.4648,25.4844
		c11.6876,3.2736,19.0352-11.3556,24.3748-22.0548c1.668-3.3436,3.2464-6.5036,4.4808-8.1444
		c2.5584-3.4024,15.1444-3.3592,23.2304-2.0272c2.1368,0.3864,4.2345-1.1096,4.5976-3.2932
		C199.7263,54.9377,198.2579,52.8749,196.0779,52.5157z"/>
</g>
</svg>
